<svg xmlns="http://www.w3.org/2000/svg" viewBox="0 0 1056 3265" width="1056" height="3265"><path fill="#ffffff" fill-rule="evenodd" d="M931 2414L925 2409L919 2406L871 2393L868 2393L866 2395L865 2394L857 2395L842 2392L840 2395L837 2394L834 2395L829 2395L828 2394L826 2395L817 2395L816 2398L808 2397L798 2401L791 2401L783 2398L763 2401L761 2399L761 2390L763 2387L763 2382L761 2379L761 2376L756 2367L751 2361L749 2355L746 2351L734 2344L719 2339L716 2339L705 2335L699 2336L698 2335L687 2334L683 2339L685 2344L681 2347L682 2357L680 2359L679 2364L680 2367L676 2373L676 2379L674 2380L674 2383L672 2384L674 2389L672 2391L676 2397L673 2400L669 2399L671 2406L668 2407L668 2408L671 2411L672 2414L669 2420L654 2419L653 2421L645 2422L644 2425L629 2423L627 2425L623 2424L621 2426L615 2426L611 2431L606 2433L599 2433L598 2432L590 2433L587 2439L585 2439L579 2443L572 2444L555 2451L548 2458L544 2466L542 2468L540 2468L534 2457L524 2451L516 2449L508 2445L501 2444L498 2442L479 2438L475 2438L470 2442L455 2441L452 2444L438 2445L437 2446L430 2444L427 2445L419 2444L420 2446L415 2449L409 2448L407 2450L402 2450L401 2451L385 2452L371 2455L357 2455L355 2453L355 2449L357 2446L357 2439L355 2436L353 2422L348 2410L344 2405L343 2401L337 2394L334 2393L331 2390L316 2384L309 2383L306 2381L289 2378L285 2376L279 2376L274 2378L270 2377L272 2380L270 2384L270 2389L268 2390L270 2396L269 2397L266 2396L264 2401L265 2402L261 2403L265 2409L265 2411L261 2416L259 2415L264 2422L264 2426L262 2428L264 2433L262 2436L260 2436L261 2439L260 2443L262 2445L257 2450L258 2453L255 2458L258 2462L256 2464L253 2463L251 2466L242 2466L240 2465L238 2467L234 2468L233 2472L227 2472L225 2474L206 2473L207 2475L206 2478L201 2478L200 2477L197 2479L190 2478L189 2481L181 2480L183 2483L182 2484L176 2484L170 2486L163 2485L161 2488L154 2492L145 2492L145 2494L143 2496L142 2495L137 2497L131 2496L129 2497L128 2500L125 2500L126 2503L124 2505L119 2504L114 2510L111 2510L111 2515L110 2516L120 2534L120 2538L123 2544L123 2548L130 2559L139 2565L151 2567L153 2569L163 2572L185 2572L186 2571L212 2572L224 2569L232 2569L237 2567L257 2566L278 2559L280 2561L284 2571L289 2578L284 2579L282 2583L274 2581L271 2583L257 2581L255 2584L252 2583L241 2584L239 2583L236 2586L230 2585L231 2588L229 2590L225 2591L216 2589L214 2592L209 2593L205 2592L204 2595L199 2594L194 2597L193 2599L193 2603L197 2608L195 2610L197 2615L196 2617L192 2617L189 2619L188 2618L179 2618L178 2621L174 2620L172 2622L164 2621L163 2623L159 2624L160 2628L157 2632L149 2631L147 2633L148 2636L146 2638L144 2638L140 2642L136 2642L138 2647L134 2651L131 2652L131 2654L133 2656L134 2663L132 2665L130 2665L132 2669L131 2670L126 2670L131 2677L131 2679L129 2680L128 2684L123 2683L123 2685L127 2689L128 2692L126 2694L126 2696L124 2698L122 2698L125 2702L125 2711L129 2715L132 2721L132 2724L131 2725L128 2724L127 2728L134 2738L134 2741L137 2745L136 2751L141 2759L138 2763L134 2763L138 2769L139 2774L145 2784L145 2788L156 2808L170 2854L174 2859L183 2863L182 2865L177 2865L178 2867L177 2872L172 2878L174 2884L172 2886L169 2885L172 2890L171 2895L173 2898L171 2905L175 2910L178 2918L180 2920L182 2925L183 2933L185 2936L185 2941L187 2945L194 2954L194 2956L199 2964L206 2971L211 2979L218 2986L232 2992L240 3000L248 3003L255 3004L258 3007L256 3008L256 3010L252 3014L252 3016L251 3017L246 3016L244 3019L245 3022L244 3023L239 3023L238 3024L239 3027L237 3029L235 3029L235 3031L227 3038L221 3041L222 3043L220 3045L211 3044L213 3047L211 3050L210 3049L202 3049L200 3052L193 3051L191 3053L182 3051L185 3056L183 3058L176 3056L168 3057L162 3064L158 3064L159 3067L157 3069L151 3068L149 3070L143 3069L140 3071L131 3071L130 3075L122 3074L120 3075L119 3080L114 3080L114 3082L111 3084L106 3083L96 3084L92 3088L93 3091L91 3093L87 3094L80 3093L82 3096L80 3102L85 3109L84 3113L86 3115L86 3117L88 3119L93 3131L94 3141L96 3146L108 3161L121 3170L129 3174L133 3174L138 3176L187 3177L188 3176L210 3174L220 3168L242 3166L253 3161L262 3159L270 3154L285 3151L287 3149L291 3148L296 3143L300 3142L303 3139L308 3139L316 3136L328 3127L335 3124L340 3119L347 3116L358 3108L360 3108L368 3103L371 3099L380 3096L390 3085L399 3083L405 3079L411 3072L420 3069L425 3064L429 3063L435 3058L439 3057L447 3050L449 3050L456 3045L460 3044L480 3031L488 3028L495 3022L499 3022L506 3017L510 3016L514 3012L518 3011L521 3008L534 3003L541 2998L561 2989L568 2982L569 2979L565 2975L563 2975L561 2973L550 2971L546 2974L536 2975L531 2978L520 2980L517 2982L512 2982L510 2984L507 2984L504 2986L491 2988L481 2992L476 2992L473 2994L468 2994L465 2996L438 3001L436 3003L428 3004L422 3007L413 3007L410 3009L400 3010L398 3012L392 3012L384 3015L378 3014L370 3016L369 3015L376 3010L376 3008L387 2998L397 2994L410 2980L421 2976L422 2974L428 2970L433 2962L440 2960L449 2952L450 2948L457 2942L467 2936L475 2927L476 2924L491 2910L491 2908L496 2903L498 2899L499 2886L494 2873L483 2861L473 2857L471 2855L446 2847L430 2844L426 2842L411 2841L409 2845L405 2845L400 2843L390 2844L387 2848L383 2848L378 2850L378 2852L373 2856L372 2859L368 2858L367 2859L368 2861L363 2869L355 2871L353 2874L350 2874L346 2877L346 2880L342 2884L344 2887L343 2892L342 2893L341 2892L334 2893L334 2895L336 2897L336 2901L334 2903L329 2902L328 2903L330 2905L329 2910L323 2912L324 2914L323 2916L319 2915L318 2916L321 2924L318 2926L318 2928L316 2930L314 2929L310 2930L302 2938L301 2942L303 2944L302 2947L299 2947L297 2951L292 2952L289 2951L284 2940L281 2937L280 2933L275 2925L275 2920L273 2918L272 2906L267 2895L261 2888L254 2882L250 2881L246 2878L212 2867L199 2865L195 2863L197 2861L216 2859L233 2855L243 2841L250 2835L252 2831L252 2828L280 2802L286 2795L292 2793L303 2784L308 2777L318 2775L327 2767L336 2764L343 2759L351 2758L358 2753L361 2753L368 2750L374 2745L379 2745L386 2742L399 2742L410 2739L425 2739L428 2741L429 2747L424 2751L423 2758L422 2759L417 2759L417 2763L414 2766L413 2771L411 2773L406 2774L405 2777L402 2779L402 2783L396 2787L392 2791L391 2794L388 2794L387 2796L380 2796L379 2795L374 2800L370 2800L361 2805L359 2804L350 2805L347 2807L344 2807L342 2809L341 2808L339 2809L335 2808L328 2811L323 2810L320 2813L317 2812L313 2814L310 2814L309 2816L304 2816L299 2820L295 2820L284 2825L282 2827L279 2827L274 2830L266 2831L265 2832L265 2838L270 2844L280 2844L281 2845L285 2844L302 2845L303 2846L323 2845L330 2841L337 2841L349 2838L363 2837L371 2834L379 2834L385 2832L390 2832L395 2829L402 2829L405 2827L415 2826L416 2825L423 2826L443 2821L471 2810L481 2805L486 2801L493 2788L497 2786L498 2784L498 2779L504 2762L504 2753L505 2752L500 2726L498 2722L481 2704L459 2692L445 2687L440 2684L412 2676L407 2676L392 2672L382 2673L381 2672L372 2672L371 2671L366 2672L363 2671L360 2672L347 2671L345 2672L344 2675L334 2674L332 2672L342 2670L349 2666L354 2666L361 2663L379 2661L392 2652L397 2652L401 2650L418 2646L426 2642L435 2641L445 2631L452 2627L456 2622L456 2609L454 2603L451 2599L438 2592L421 2587L416 2587L406 2584L400 2584L391 2580L378 2580L377 2579L369 2579L368 2580L362 2579L359 2580L357 2578L357 2576L362 2567L362 2547L364 2538L368 2535L374 2535L393 2526L413 2519L416 2519L434 2513L439 2513L443 2510L448 2510L453 2507L470 2504L478 2500L491 2498L494 2495L496 2495L500 2492L509 2490L523 2490L530 2488L532 2490L532 2493L535 2500L536 2510L544 2524L549 2530L556 2535L565 2539L575 2540L576 2541L583 2541L584 2540L585 2541L594 2541L595 2542L619 2541L629 2538L647 2537L665 2529L673 2529L675 2533L672 2536L675 2539L678 2546L676 2550L681 2558L681 2560L679 2561L684 2569L683 2570L684 2573L682 2575L673 2574L667 2577L659 2577L658 2576L646 2577L644 2576L644 2578L642 2580L636 2579L633 2580L630 2584L624 2582L619 2582L618 2587L606 2586L606 2588L603 2591L594 2591L588 2589L587 2590L588 2593L583 2594L584 2597L580 2600L574 2599L572 2601L570 2600L565 2600L563 2602L560 2601L554 2606L547 2606L548 2608L546 2610L541 2609L539 2611L531 2614L529 2616L528 2621L526 2621L524 2623L518 2622L516 2624L514 2624L516 2630L512 2631L513 2635L510 2637L504 2637L505 2646L507 2648L512 2660L513 2668L515 2671L515 2677L518 2684L528 2696L531 2698L543 2698L553 2703L575 2704L576 2703L587 2702L596 2697L602 2697L603 2698L617 2697L627 2693L639 2692L642 2690L646 2690L662 2685L668 2685L672 2683L683 2682L692 2678L699 2678L706 2676L716 2676L717 2675L722 2675L725 2673L735 2673L736 2672L745 2672L755 2670L767 2672L770 2676L768 2678L770 2680L770 2682L767 2683L768 2684L767 2686L763 2686L765 2689L762 2690L763 2695L761 2697L762 2700L758 2702L758 2706L755 2707L754 2710L751 2713L749 2712L753 2719L753 2721L752 2722L746 2722L747 2723L747 2728L742 2733L744 2737L742 2739L739 2738L741 2743L739 2745L737 2745L734 2749L738 2754L736 2756L733 2756L730 2760L732 2762L730 2765L724 2767L721 2770L723 2777L718 2782L717 2785L718 2787L716 2790L717 2793L711 2798L711 2801L708 2805L693 2843L679 2872L677 2874L671 2868L668 2860L664 2854L660 2851L655 2843L653 2842L653 2840L643 2822L642 2816L636 2802L627 2793L616 2770L610 2763L605 2761L599 2755L595 2746L591 2742L584 2738L579 2737L568 2732L541 2725L537 2725L538 2727L536 2729L526 2727L525 2730L522 2733L520 2741L523 2746L524 2760L526 2762L523 2765L526 2769L527 2774L533 2782L535 2791L537 2794L536 2800L540 2806L544 2808L550 2814L552 2818L554 2828L554 2842L560 2852L561 2857L563 2859L565 2870L571 2881L571 2885L574 2893L583 2910L586 2922L597 2939L597 2943L599 2946L600 2952L604 2958L604 2960L619 2981L618 2987L614 2990L614 2992L609 2993L611 2997L607 2998L600 3005L601 3009L597 3011L597 3016L594 3017L592 3021L588 3022L588 3026L583 3030L577 3043L566 3057L554 3070L507 3112L509 3114L508 3116L502 3116L502 3118L496 3124L497 3127L495 3129L489 3129L488 3134L480 3141L478 3141L477 3145L474 3145L473 3148L470 3148L468 3150L468 3153L463 3157L451 3172L450 3176L447 3178L446 3181L443 3184L443 3187L438 3190L437 3195L435 3196L435 3198L428 3207L425 3209L425 3211L422 3215L403 3232L407 3242L410 3244L417 3244L422 3241L427 3241L431 3239L446 3235L450 3235L469 3229L475 3229L480 3227L495 3225L501 3222L509 3220L514 3217L528 3214L539 3204L546 3203L557 3193L561 3191L563 3188L568 3186L572 3181L576 3180L587 3170L596 3157L598 3157L616 3138L621 3137L629 3129L634 3122L636 3116L647 3107L656 3097L662 3088L662 3086L675 3073L682 3063L698 3073L709 3085L716 3090L723 3093L724 3095L733 3101L743 3113L747 3116L759 3121L768 3130L775 3133L783 3139L785 3139L794 3146L804 3150L807 3150L810 3153L818 3156L828 3164L841 3168L850 3174L870 3180L876 3184L886 3186L903 3187L909 3189L923 3189L924 3190L942 3191L943 3192L997 3194L999 3191L999 3188L996 3185L968 3178L953 3171L950 3168L948 3168L947 3166L942 3164L939 3161L937 3161L913 3137L906 3133L902 3128L897 3126L894 3123L890 3122L877 3110L874 3109L868 3102L860 3098L849 3090L836 3075L833 3074L816 3057L812 3054L810 3054L805 3049L803 3045L797 3039L793 3037L786 3029L778 3024L773 3019L766 3008L760 3002L752 2998L748 2994L744 2987L745 2981L747 2979L749 2973L754 2969L757 2962L761 2958L764 2952L770 2946L774 2944L783 2932L785 2931L785 2928L790 2923L793 2916L802 2907L805 2899L812 2890L816 2881L820 2876L821 2872L831 2859L834 2851L844 2840L847 2831L851 2826L852 2822L858 2815L859 2811L869 2802L873 2795L874 2789L884 2779L888 2766L892 2762L894 2757L902 2747L906 2739L906 2733L912 2726L915 2711L917 2708L918 2690L920 2687L921 2682L920 2669L918 2666L917 2660L914 2656L914 2652L912 2649L911 2644L905 2634L896 2626L890 2618L876 2610L871 2609L867 2606L862 2605L853 2600L835 2594L833 2592L819 2587L816 2587L812 2585L803 2585L793 2588L788 2588L784 2586L785 2546L786 2545L786 2529L785 2528L784 2509L786 2507L811 2502L824 2495L832 2495L844 2490L848 2490L858 2487L862 2483L871 2482L876 2479L885 2477L890 2473L902 2469L908 2463L920 2459L934 2446L936 2437L938 2434L938 2428L936 2425L936 2422ZM323 2675L322 2677L313 2676L312 2678L306 2679L306 2681L302 2685L298 2685L296 2688L286 2687L281 2689L278 2694L271 2695L270 2698L265 2698L264 2700L261 2701L256 2708L253 2708L251 2710L248 2709L249 2701L255 2691L255 2687L260 2681L263 2681L270 2676L273 2675L304 2675L320 2672ZM441 2141L440 2144L445 2151L448 2158L450 2167L452 2169L455 2185L458 2192L474 2215L482 2221L498 2239L506 2245L508 2245L513 2250L520 2262L525 2267L544 2278L552 2281L560 2282L567 2288L575 2288L580 2285L594 2284L603 2279L605 2279L612 2273L615 2267L616 2246L618 2243L618 2238L616 2235L615 2225L601 2198L593 2189L591 2189L584 2182L572 2176L563 2167L561 2167L549 2160L504 2144L484 2139L479 2139L470 2136L459 2136L452 2134L451 2138ZM198 1843L199 1848L195 1849L195 1850L200 1856L202 1863L204 1865L204 1868L207 1874L209 1890L211 1893L211 1896L219 1909L243 1933L263 1941L271 1943L290 1943L291 1942L304 1943L305 1942L312 1942L320 1944L331 1944L341 1942L356 1942L363 1940L372 1940L377 1942L386 1942L396 1945L408 1946L409 1947L407 1948L408 1953L404 1956L405 1958L404 1959L399 1959L402 1962L400 1965L402 1968L399 1973L393 1973L396 1977L396 1979L388 1985L384 1986L385 1989L383 1990L382 1994L384 1997L377 1999L378 2000L376 2002L375 2005L376 2008L375 2009L369 2008L367 2010L369 2013L370 2020L369 2021L362 2021L365 2028L357 2030L357 2033L354 2035L354 2038L352 2040L347 2039L349 2044L345 2045L343 2047L343 2049L345 2051L344 2052L341 2051L339 2054L335 2054L336 2059L333 2061L334 2063L332 2065L330 2065L327 2069L325 2068L326 2071L321 2074L323 2079L318 2080L315 2083L316 2088L313 2090L305 2090L306 2094L302 2098L298 2098L297 2099L298 2102L295 2105L291 2105L292 2107L287 2109L288 2112L286 2114L286 2117L285 2118L284 2117L282 2120L275 2121L276 2125L274 2127L270 2127L271 2129L268 2131L267 2134L263 2134L259 2139L257 2139L258 2141L257 2144L249 2142L241 2147L242 2149L238 2154L233 2153L235 2158L232 2161L229 2160L223 2160L222 2161L224 2165L223 2168L221 2168L219 2170L215 2169L211 2172L212 2175L210 2177L205 2177L200 2179L199 2182L194 2182L189 2186L187 2186L189 2190L188 2191L183 2191L180 2194L176 2194L175 2197L171 2198L170 2200L171 2203L170 2204L158 2205L159 2207L158 2210L148 2211L142 2217L140 2217L135 2221L137 2223L137 2225L130 2227L132 2231L129 2234L127 2234L121 2240L120 2244L118 2246L116 2246L116 2249L108 2255L105 2260L103 2260L98 2265L93 2267L90 2271L84 2273L80 2277L74 2280L73 2282L74 2286L79 2293L88 2294L97 2292L107 2292L115 2290L136 2289L137 2288L166 2289L171 2287L197 2287L207 2284L218 2283L226 2278L241 2274L249 2269L255 2268L262 2264L266 2264L272 2260L278 2258L284 2253L290 2251L298 2242L308 2238L323 2226L331 2223L341 2213L344 2212L350 2206L353 2205L360 2197L365 2194L368 2189L374 2186L378 2182L378 2180L382 2176L382 2174L386 2169L390 2166L397 2164L405 2157L409 2150L409 2146L419 2135L423 2134L427 2128L434 2121L440 2110L442 2109L450 2099L452 2094L452 2090L455 2087L462 2084L470 2073L473 2066L483 2055L484 2045L491 2040L493 2037L495 2030L500 2021L504 2017L506 2013L506 2010L511 2003L513 1997L519 1991L530 2007L533 2015L538 2021L540 2026L551 2039L551 2041L556 2048L556 2052L560 2058L560 2060L566 2067L573 2079L581 2087L588 2100L604 2115L609 2123L617 2130L619 2134L627 2142L639 2158L647 2166L653 2170L665 2184L677 2193L680 2194L692 2207L699 2211L707 2218L723 2227L736 2238L742 2240L748 2245L754 2247L760 2252L770 2256L780 2265L782 2265L802 2276L809 2278L823 2289L839 2296L844 2296L847 2300L860 2306L871 2314L873 2314L892 2325L904 2329L913 2330L922 2337L934 2342L942 2344L950 2344L955 2346L962 2346L967 2344L971 2346L992 2346L1012 2340L1022 2330L1024 2326L1024 2322L1026 2319L1026 2304L1024 2301L1022 2290L1005 2261L993 2249L988 2247L985 2244L983 2244L959 2229L922 2210L918 2206L897 2196L883 2187L871 2182L867 2177L854 2170L847 2164L845 2164L833 2154L825 2151L823 2148L815 2144L806 2136L800 2134L796 2130L777 2118L760 2101L754 2098L746 2089L744 2089L741 2083L733 2077L717 2061L715 2057L702 2045L696 2037L690 2032L690 2030L679 2019L672 2008L664 2000L662 1995L657 1991L652 1983L647 1979L646 1976L634 1961L634 1959L631 1955L623 1948L618 1940L606 1929L608 1927L615 1928L619 1926L626 1926L635 1922L641 1922L646 1920L674 1920L680 1918L690 1918L697 1916L709 1915L723 1910L754 1911L764 1908L771 1908L789 1904L797 1904L807 1902L824 1902L833 1899L860 1898L868 1896L874 1892L892 1893L898 1891L904 1891L911 1888L924 1888L933 1886L937 1884L942 1879L945 1878L959 1864L963 1853L963 1840L959 1826L953 1816L944 1807L938 1805L928 1798L918 1794L916 1792L911 1791L909 1789L885 1781L882 1779L836 1767L825 1766L825 1769L823 1770L822 1773L815 1772L815 1775L814 1776L811 1775L809 1778L805 1777L804 1778L799 1778L793 1776L791 1777L787 1776L788 1778L787 1780L784 1779L770 1780L769 1781L770 1784L768 1786L760 1784L750 1784L749 1786L750 1790L749 1791L746 1790L740 1791L738 1790L736 1792L730 1790L730 1792L727 1794L718 1792L719 1794L718 1796L714 1796L709 1798L704 1797L700 1801L688 1799L690 1801L689 1804L679 1802L680 1804L678 1806L672 1804L662 1803L663 1806L662 1807L657 1807L656 1811L650 1810L648 1812L631 1809L633 1813L632 1815L624 1813L615 1814L616 1815L615 1817L601 1815L600 1818L602 1820L598 1821L596 1819L596 1814L597 1813L598 1801L600 1799L600 1788L602 1781L601 1767L600 1766L600 1761L601 1760L600 1737L598 1734L601 1726L601 1713L600 1708L598 1705L598 1687L595 1678L587 1668L581 1665L571 1657L561 1653L559 1651L554 1650L546 1646L542 1646L539 1644L516 1639L504 1634L482 1629L482 1631L479 1635L475 1635L477 1637L481 1647L480 1648L482 1651L481 1661L483 1664L485 1674L482 1680L485 1686L484 1689L485 1690L484 1709L483 1710L484 1711L481 1714L482 1718L480 1719L480 1722L482 1725L484 1733L481 1735L483 1741L480 1742L482 1747L479 1751L480 1758L478 1759L478 1764L476 1768L477 1776L474 1777L472 1788L469 1793L469 1796L467 1800L467 1804L463 1808L464 1809L463 1815L460 1816L462 1818L459 1820L460 1821L459 1822L456 1822L454 1824L452 1823L446 1824L444 1826L435 1825L430 1823L429 1824L423 1824L425 1826L424 1828L411 1825L410 1826L398 1825L395 1827L387 1825L385 1826L384 1829L379 1829L367 1826L367 1828L363 1830L353 1829L352 1828L348 1829L338 1828L339 1830L337 1833L324 1829L319 1829L318 1830L312 1829L313 1830L312 1832L307 1831L306 1833L302 1832L295 1833L286 1830L286 1832L284 1834L282 1834L283 1835L282 1837L277 1835L257 1833L254 1836L245 1834L242 1837L241 1840L234 1838L229 1838L222 1840L209 1838L210 1839L209 1841L204 1840L205 1842L204 1844ZM275 842L275 847L271 848L273 850L271 853L273 859L272 860L270 859L265 859L264 860L269 867L266 870L269 873L265 879L261 880L262 883L265 886L266 896L267 897L259 899L259 903L265 910L264 914L260 915L259 918L264 923L266 927L265 930L263 929L261 930L265 935L260 936L266 944L265 949L268 954L267 956L260 956L264 962L263 966L260 968L265 975L264 977L261 978L263 982L263 986L260 987L259 989L252 990L251 994L242 992L237 993L236 994L237 997L235 999L230 998L228 1002L217 1001L218 1004L215 1007L211 1006L210 1008L205 1007L200 1008L199 1009L201 1012L200 1013L187 1012L185 1014L180 1016L181 1017L179 1019L177 1019L175 1022L170 1022L168 1024L166 1024L168 1026L161 1030L158 1029L157 1032L154 1031L150 1035L142 1034L145 1038L144 1039L133 1040L131 1041L132 1043L129 1045L126 1044L121 1045L120 1046L123 1053L121 1055L120 1054L115 1054L113 1055L112 1058L106 1059L107 1060L104 1063L103 1067L96 1066L97 1069L93 1072L94 1075L92 1077L89 1077L97 1090L98 1096L102 1104L102 1108L106 1115L113 1123L119 1126L128 1133L141 1137L157 1138L158 1137L165 1137L176 1133L190 1132L196 1129L212 1125L213 1127L208 1130L209 1132L207 1134L199 1133L200 1137L197 1140L192 1141L192 1143L190 1145L182 1146L183 1148L182 1151L181 1150L176 1150L175 1154L171 1155L173 1158L173 1162L164 1164L163 1165L164 1170L158 1173L158 1178L154 1181L149 1181L152 1185L153 1189L152 1190L141 1190L143 1194L138 1198L133 1199L137 1204L135 1206L136 1209L134 1211L130 1211L129 1213L125 1213L124 1217L120 1219L119 1221L120 1223L116 1224L119 1227L117 1232L118 1233L116 1235L110 1235L111 1238L106 1240L107 1242L106 1246L100 1250L102 1252L99 1254L99 1256L96 1259L94 1259L97 1267L92 1268L89 1271L83 1272L85 1279L83 1284L79 1288L75 1289L76 1293L74 1295L75 1300L70 1304L64 1304L66 1309L63 1313L63 1315L62 1316L57 1316L59 1320L53 1325L55 1329L51 1330L52 1332L50 1333L49 1337L43 1343L44 1347L41 1348L38 1351L39 1357L32 1360L34 1367L32 1369L27 1369L26 1370L27 1374L25 1376L25 1378L27 1380L25 1382L23 1382L25 1384L23 1386L24 1391L26 1393L25 1394L20 1394L21 1397L20 1398L21 1401L20 1402L21 1404L20 1408L22 1410L20 1413L22 1415L26 1423L26 1426L28 1428L30 1439L37 1450L44 1456L49 1457L52 1459L64 1460L65 1461L83 1460L88 1458L93 1453L97 1452L99 1448L105 1442L106 1439L114 1432L116 1427L120 1422L120 1419L122 1415L128 1409L132 1407L134 1402L140 1397L142 1392L147 1388L147 1385L156 1378L161 1369L168 1364L181 1346L195 1332L197 1329L197 1326L207 1318L209 1314L218 1305L223 1297L226 1296L242 1280L244 1275L246 1273L250 1272L252 1268L260 1262L266 1254L269 1253L273 1246L278 1245L280 1251L275 1253L278 1257L276 1259L277 1260L276 1262L279 1266L280 1270L277 1272L277 1274L279 1276L279 1279L283 1283L282 1285L278 1285L277 1289L275 1290L276 1294L278 1295L280 1299L277 1304L281 1310L280 1315L281 1321L279 1323L283 1332L283 1334L279 1336L283 1342L282 1344L279 1344L280 1346L279 1348L283 1353L283 1361L280 1362L284 1370L284 1372L282 1374L284 1377L281 1381L284 1388L280 1389L284 1394L284 1400L282 1401L282 1405L286 1409L287 1413L286 1417L287 1420L287 1428L286 1429L287 1433L285 1436L283 1436L287 1442L285 1445L285 1447L287 1449L286 1453L288 1454L287 1467L290 1470L290 1472L288 1474L289 1484L287 1485L289 1488L288 1495L290 1497L288 1498L288 1502L292 1508L292 1511L289 1513L290 1515L289 1518L291 1521L287 1524L293 1530L294 1533L293 1535L289 1535L291 1538L290 1542L294 1547L294 1555L296 1557L293 1560L294 1565L297 1570L295 1572L295 1574L297 1576L296 1581L299 1585L299 1588L296 1591L296 1593L301 1599L301 1602L303 1604L304 1613L306 1614L306 1618L308 1621L308 1625L310 1627L311 1634L315 1640L314 1642L316 1644L316 1647L320 1654L320 1657L322 1659L324 1671L327 1676L326 1681L328 1688L325 1690L327 1698L332 1703L341 1704L345 1702L353 1691L353 1687L358 1679L358 1676L361 1672L362 1666L364 1664L364 1660L369 1651L369 1646L371 1644L371 1635L374 1630L374 1625L376 1622L376 1613L378 1611L378 1600L379 1599L378 1598L378 1547L376 1544L378 1540L378 1508L379 1507L378 1487L376 1484L376 1467L378 1465L378 1460L379 1459L379 1450L378 1449L379 1448L379 1431L378 1430L378 1418L379 1417L378 1416L378 1370L379 1369L379 1363L378 1362L378 1349L376 1346L376 1343L374 1341L374 1337L376 1335L376 1326L378 1323L378 1314L376 1311L376 1306L378 1303L378 1290L376 1287L376 1278L377 1277L376 1270L378 1267L378 1252L379 1251L389 1259L396 1261L405 1267L414 1275L418 1276L429 1283L437 1285L444 1290L454 1294L457 1294L463 1302L466 1309L463 1311L465 1314L465 1318L461 1319L464 1326L460 1327L460 1329L465 1336L464 1339L461 1339L462 1344L466 1351L463 1354L468 1360L466 1362L462 1362L470 1376L468 1378L466 1378L468 1380L470 1386L469 1387L465 1386L466 1390L469 1393L465 1394L471 1405L468 1407L468 1409L470 1411L470 1414L472 1418L471 1419L468 1418L468 1420L471 1423L473 1429L470 1430L469 1432L471 1433L477 1443L477 1450L481 1455L480 1456L476 1455L476 1456L478 1457L479 1462L484 1468L483 1471L486 1475L482 1476L482 1477L487 1483L487 1485L489 1487L489 1489L494 1498L494 1502L497 1508L497 1513L499 1515L499 1520L512 1538L518 1550L521 1552L527 1560L531 1562L540 1570L552 1575L556 1575L560 1578L576 1583L585 1583L591 1585L595 1583L614 1582L621 1580L628 1574L636 1573L646 1566L650 1565L655 1561L663 1551L663 1548L671 1536L673 1527L679 1519L682 1508L684 1506L684 1503L687 1498L687 1494L692 1485L692 1481L694 1479L694 1473L697 1472L705 1479L714 1490L721 1495L728 1498L734 1504L739 1506L744 1511L748 1513L760 1527L770 1534L775 1536L780 1541L801 1555L814 1569L816 1569L822 1573L831 1582L838 1586L856 1591L861 1594L882 1601L902 1605L926 1605L927 1606L929 1605L938 1605L951 1601L964 1592L971 1580L973 1575L974 1567L976 1565L976 1560L974 1555L967 1551L958 1550L955 1551L948 1558L944 1560L942 1558L942 1555L938 1545L933 1538L923 1530L923 1528L919 1522L907 1513L900 1506L890 1491L882 1484L878 1483L868 1472L860 1467L844 1447L833 1441L828 1436L825 1430L808 1410L814 1406L824 1405L838 1399L846 1398L852 1394L866 1393L873 1388L884 1388L889 1386L895 1386L900 1382L906 1380L912 1380L919 1376L936 1374L948 1367L959 1365L968 1358L976 1357L982 1353L985 1349L990 1348L996 1344L1006 1340L1012 1333L1014 1333L1023 1326L1029 1317L1029 1315L1031 1313L1031 1309L1035 1302L1034 1292L1029 1285L1019 1278L1014 1277L1010 1274L975 1265L963 1265L948 1261L944 1261L944 1264L941 1266L931 1264L922 1265L921 1264L916 1265L909 1264L908 1265L904 1264L903 1267L898 1267L897 1270L891 1270L890 1273L883 1272L884 1275L879 1276L877 1279L875 1278L869 1279L870 1283L869 1287L863 1287L859 1289L855 1288L855 1290L852 1291L852 1294L849 1298L839 1300L838 1303L833 1307L833 1310L826 1313L827 1317L825 1319L821 1319L821 1322L819 1324L813 1324L813 1329L809 1333L804 1335L801 1340L796 1342L795 1345L792 1348L790 1348L790 1352L786 1353L779 1362L773 1364L769 1368L761 1364L758 1361L758 1359L746 1343L737 1337L732 1331L732 1329L728 1323L720 1315L713 1310L713 1308L701 1295L699 1289L682 1270L676 1269L671 1266L663 1259L658 1252L651 1248L630 1240L623 1239L620 1237L611 1236L597 1231L593 1231L586 1227L587 1223L587 1205L586 1204L586 1192L584 1190L585 1186L598 1193L607 1194L612 1196L627 1197L628 1196L646 1194L664 1188L684 1186L693 1182L723 1176L725 1174L746 1171L750 1168L758 1167L766 1163L776 1162L781 1159L798 1155L801 1153L810 1151L815 1148L821 1148L834 1144L839 1144L844 1142L870 1138L881 1135L890 1135L895 1133L896 1129L893 1126L886 1124L878 1124L877 1125L876 1124L858 1124L853 1125L852 1124L843 1124L842 1123L845 1121L855 1119L860 1116L868 1115L877 1112L884 1107L899 1104L910 1099L923 1087L928 1078L931 1077L934 1074L938 1066L938 1061L947 1045L947 1023L943 1016L942 997L936 985L928 975L923 971L922 968L911 955L892 939L880 935L877 932L855 922L833 915L825 914L813 909L809 909L805 907L801 907L798 905L782 902L771 898L753 895L749 893L734 892L727 890L721 890L720 891L714 890L712 892L707 892L695 889L691 889L688 892L681 892L680 891L655 892L654 891L652 894L648 894L646 896L642 896L640 898L635 897L629 898L619 896L617 898L618 900L616 902L600 900L597 904L587 903L586 902L585 906L573 905L571 907L567 907L563 910L556 911L552 916L545 915L545 918L543 920L540 920L536 923L531 922L528 927L523 927L522 928L523 931L518 934L512 933L511 934L514 938L510 939L508 942L501 941L500 946L502 948L502 950L496 954L495 953L496 952L495 950L495 944L496 943L495 929L489 917L488 911L471 889L456 876L449 873L443 867L431 863L423 857L418 856L416 854L400 848L392 847L363 838L359 838L349 835L343 835L339 833L323 833L312 830L307 830L308 831L307 833L300 831L295 831L295 833L297 834L296 837L289 836L286 839L284 839L280 842ZM582 1340L584 1340L597 1357L603 1370L613 1384L624 1395L632 1400L642 1410L652 1424L660 1431L660 1434L648 1446L646 1446L638 1454L636 1454L635 1456L630 1459L628 1462L623 1462L619 1464L619 1466L617 1468L613 1468L612 1470L609 1471L608 1474L598 1475L597 1476L594 1474L593 1459L589 1452L589 1446L591 1444L591 1435L589 1433L589 1428L587 1425L587 1417L584 1412L584 1403L586 1400L586 1388L584 1386L584 1354L582 1352L582 1347L581 1346L581 1341ZM853 1006L852 1008L850 1008L848 1010L848 1012L851 1016L850 1017L844 1017L846 1022L842 1023L846 1028L846 1030L844 1032L840 1033L842 1036L841 1039L843 1041L841 1043L837 1043L836 1046L838 1049L835 1051L836 1052L835 1057L837 1059L837 1061L836 1062L834 1061L836 1064L835 1065L836 1069L834 1071L833 1079L831 1080L831 1084L829 1087L830 1088L828 1091L828 1094L821 1105L811 1112L812 1116L814 1118L814 1123L812 1125L811 1124L790 1124L789 1123L787 1124L778 1124L777 1123L777 1121L789 1111L796 1109L814 1091L815 1087L819 1082L819 1079L821 1076L819 1073L821 1070L821 1061L816 1052L809 1045L804 1043L787 1031L759 1023L744 1020L737 1020L725 1017L700 1017L699 1018L690 1017L684 1019L673 1019L671 1021L662 1020L661 1023L651 1022L648 1023L645 1026L641 1026L640 1028L637 1029L624 1030L617 1037L620 1048L623 1053L623 1057L628 1062L638 1066L649 1066L659 1062L665 1062L670 1060L684 1060L689 1058L694 1058L707 1055L718 1055L722 1053L742 1053L744 1056L740 1060L737 1060L735 1065L729 1065L730 1067L729 1069L723 1069L715 1077L711 1077L709 1080L702 1081L702 1084L695 1089L688 1088L689 1090L688 1091L684 1090L682 1092L679 1092L677 1095L673 1095L674 1098L672 1100L670 1100L663 1104L658 1104L655 1106L648 1107L648 1109L643 1110L642 1113L639 1113L633 1116L628 1116L627 1118L620 1118L616 1122L613 1122L611 1124L607 1124L606 1126L604 1126L600 1129L596 1129L594 1133L590 1133L587 1130L589 1123L588 1121L589 1109L585 1097L585 1063L584 1058L581 1053L582 1050L585 1052L585 1046L583 1041L583 1032L585 1027L579 1020L593 1012L606 1011L610 1009L618 1008L624 1006L630 1000L649 999L663 994L679 992L692 987L710 985L714 983L746 982L747 981L754 981L758 979L774 979L789 982L811 983L821 987L824 987L828 990L835 992L837 995L849 1002ZM496 957L498 959L496 961L496 963L502 973L508 990L505 993L501 994L494 993L496 996L496 998L494 1000L495 1003L491 1006L488 1011L486 1011L487 1013L483 1016L487 1021L484 1022L485 1024L483 1030L480 1032L483 1036L483 1038L479 1040L479 1042L481 1044L480 1047L481 1049L480 1050L476 1049L474 1052L477 1056L475 1060L478 1063L478 1066L474 1068L474 1071L477 1075L478 1079L474 1082L476 1088L472 1091L476 1096L472 1097L475 1104L469 1109L474 1115L476 1121L475 1125L473 1126L474 1128L468 1131L471 1135L471 1139L468 1144L470 1147L469 1150L470 1153L469 1154L466 1153L464 1154L466 1156L466 1160L468 1162L470 1168L469 1170L464 1171L469 1177L466 1179L468 1181L467 1186L469 1188L466 1193L469 1197L467 1199L464 1199L462 1202L459 1202L453 1200L448 1195L438 1190L428 1180L422 1177L410 1168L404 1161L400 1160L395 1156L385 1153L380 1149L379 1140L381 1138L381 1111L379 1108L379 1103L381 1100L381 1096L383 1094L383 1087L382 1086L383 1083L383 1059L385 1052L393 1045L408 1040L413 1035L417 1034L424 1029L425 1027L430 1025L436 1019L443 1017L450 1009L463 1002L474 989L474 986L476 984L484 981L487 977L489 971L489 965L494 960L494 958ZM386 931L386 905L385 904L386 903L386 897L388 895L393 895L412 902L414 904L419 905L426 912L425 913L419 913L420 915L416 916L415 918L412 919L411 923L404 922L402 926L396 927L394 932L387 932ZM146 341L148 346L144 352L142 351L143 355L139 362L139 365L141 367L140 370L141 374L139 376L141 379L140 385L142 390L141 391L136 391L142 401L141 402L136 402L138 404L139 408L134 413L139 422L138 423L133 423L138 432L135 433L141 443L140 445L136 446L138 453L137 456L138 464L135 465L135 466L138 469L139 472L137 474L135 474L134 477L132 477L132 480L139 491L132 494L136 499L136 501L133 502L133 505L136 508L135 510L136 513L134 516L134 520L137 524L135 525L134 535L129 536L133 546L131 548L132 551L131 552L128 551L138 572L137 577L130 576L134 581L134 583L132 585L133 586L132 590L134 593L133 596L135 598L133 599L134 606L137 609L134 611L136 614L134 615L134 617L140 626L138 628L138 630L140 632L140 635L145 641L146 646L149 651L150 657L153 663L155 677L157 680L158 687L160 689L166 703L171 710L177 724L181 728L187 738L210 758L235 770L242 775L253 779L265 782L271 782L275 784L287 784L302 788L328 788L329 789L343 788L358 782L375 782L384 780L394 780L395 779L405 778L408 776L421 775L428 773L436 768L444 766L447 764L464 761L472 755L475 755L484 750L490 749L493 747L497 747L508 742L511 742L520 737L533 734L540 731L542 728L549 728L561 723L588 718L595 714L602 713L612 708L620 708L627 705L636 705L651 700L660 699L667 695L675 695L684 691L691 691L697 687L702 686L705 683L716 683L722 681L724 679L728 679L740 675L747 674L750 671L755 669L763 668L766 665L772 664L775 662L783 661L791 655L802 653L819 645L827 639L833 637L842 626L845 628L850 644L854 652L868 672L882 686L899 696L915 700L931 700L932 701L957 700L970 695L980 687L985 680L987 671L989 668L989 645L988 640L986 637L986 610L984 604L984 595L982 593L982 588L978 579L978 572L977 571L978 553L977 552L977 543L974 536L974 518L972 508L970 504L968 480L965 471L966 462L968 458L968 452L966 449L966 442L962 423L964 419L964 403L960 390L961 386L961 367L960 366L960 359L958 355L958 349L960 346L960 329L957 319L956 293L954 290L953 285L953 274L941 246L932 235L932 233L929 229L924 225L922 225L908 217L893 212L878 209L874 207L865 207L864 206L861 206L859 208L856 207L853 210L846 209L845 212L846 216L841 217L839 220L837 220L839 224L838 225L835 224L833 226L832 229L832 236L833 237L829 239L829 241L832 245L831 246L826 246L825 249L827 255L826 257L829 262L827 264L822 264L824 270L828 275L826 277L827 278L826 280L823 280L819 282L824 291L820 293L820 299L821 300L818 301L818 304L816 306L813 306L820 317L819 323L825 333L821 334L822 335L820 337L816 338L818 341L819 346L818 347L813 347L817 353L815 356L816 358L814 359L815 369L814 370L812 369L812 374L815 377L816 381L815 382L810 381L818 396L814 399L811 399L812 403L818 411L816 413L817 416L814 417L817 420L818 427L817 428L813 427L814 430L813 434L814 435L812 437L814 439L813 443L817 448L816 451L813 450L812 451L815 454L817 459L816 461L817 464L814 465L815 467L812 469L813 470L812 473L815 477L813 480L818 488L816 490L812 489L810 491L810 493L816 501L814 504L812 504L815 509L810 512L803 511L796 513L793 512L784 512L780 514L775 513L769 517L759 517L758 516L748 516L740 518L736 517L735 519L730 519L729 522L718 521L717 523L713 524L702 522L699 525L693 524L688 529L683 529L677 532L672 532L671 533L664 532L665 535L662 537L652 535L650 538L641 536L640 540L635 540L636 544L633 547L631 546L625 547L624 548L625 550L620 553L607 552L605 554L602 553L600 556L598 555L593 555L592 557L586 556L585 559L580 557L580 548L582 540L582 517L580 511L580 486L576 476L576 469L578 464L577 425L576 424L577 397L575 391L576 387L576 342L577 341L577 326L576 325L577 296L576 294L578 289L578 270L581 263L581 248L577 235L578 230L580 228L580 217L582 213L582 203L584 200L584 189L585 188L584 163L585 162L585 149L586 148L586 137L587 136L586 133L586 111L585 110L585 83L586 79L585 78L584 66L580 56L564 40L555 35L542 30L539 30L536 28L525 26L505 20L491 21L493 24L491 26L485 25L485 28L484 29L482 28L485 32L481 33L479 36L481 40L477 43L478 44L473 45L474 54L472 56L468 55L469 57L468 58L468 63L470 66L469 67L463 67L466 72L465 73L466 78L463 79L464 80L462 83L465 87L464 90L467 96L460 101L461 106L459 107L460 110L457 111L458 114L456 117L458 120L458 124L453 127L456 130L456 132L454 134L457 138L457 140L456 141L451 141L452 145L457 152L451 157L449 157L451 160L450 162L445 161L451 171L450 173L446 173L447 174L446 178L449 181L451 188L449 190L448 189L443 189L442 191L447 198L448 202L443 205L445 208L443 210L444 211L443 213L445 215L445 217L444 218L439 217L444 223L444 226L447 229L449 234L447 237L443 236L444 241L440 242L446 254L445 256L448 259L448 261L444 266L440 266L442 269L443 274L439 275L439 277L441 279L439 280L438 283L436 283L437 286L441 290L440 295L437 297L440 301L440 303L437 306L441 311L441 313L436 317L440 327L438 329L435 329L438 334L434 336L433 338L439 347L439 350L435 353L437 355L436 361L438 364L436 367L438 369L437 373L439 375L436 378L440 384L440 389L439 390L435 389L437 392L435 398L440 405L438 407L436 406L438 410L437 412L440 417L440 419L437 420L437 422L439 424L438 426L439 431L438 432L433 431L439 441L439 443L437 444L442 451L441 453L438 453L437 456L434 459L442 473L440 475L435 474L442 485L441 488L443 491L441 493L448 503L450 513L454 518L457 527L457 532L460 538L462 551L470 565L474 576L485 591L483 593L473 591L472 592L473 593L472 596L474 598L473 600L461 599L459 600L458 604L449 603L444 608L434 607L433 611L425 610L424 612L418 611L420 615L417 617L415 616L413 618L404 619L394 616L393 617L395 619L394 621L379 618L378 621L373 622L376 626L375 627L366 626L364 629L349 628L348 631L338 629L339 632L338 634L327 635L326 634L321 639L316 637L308 636L305 637L307 640L305 642L301 642L297 644L293 643L294 644L293 646L281 644L282 646L281 648L269 646L264 649L257 638L254 623L250 615L249 580L247 578L246 573L246 547L245 546L246 523L245 522L245 517L243 514L243 506L240 498L240 491L242 482L242 471L241 470L241 465L237 456L237 450L238 449L237 445L237 428L236 423L234 420L234 413L231 404L231 393L229 386L226 382L226 379L220 365L207 352L194 346L159 337L155 337L153 339L149 339L148 341Z"/></svg>